<?xml version="1.0" encoding="utf-8"?>
<!-- Generator: Adobe Illustrator 16.0.3, SVG Export Plug-In . SVG Version: 6.00 Build 0)  -->
<!DOCTYPE svg PUBLIC "-//W3C//DTD SVG 1.1//EN" "http://www.w3.org/Graphics/SVG/1.1/DTD/svg11.dtd">
<svg version="1.1" id="Layer_1" xmlns="http://www.w3.org/2000/svg" xmlns:xlink="http://www.w3.org/1999/xlink" x="0px" y="0px"
	 width="41.667px" height="46.5px" viewBox="0 0 41.667 46.5" enable-background="new 0 0 41.667 46.5" xml:space="preserve">
<g display="none">
	<circle display="inline" fill="none" stroke="#D51F26" stroke-width="2" stroke-miterlimit="10" cx="9.039" cy="9.283" r="2.8"/>
	<path display="inline" fill="#D51F26" stroke="#D51F26" stroke-miterlimit="10" d="M9.502,4.068c0,0.266-0.215,0.48-0.48,0.48l0,0
		c-0.266,0-0.481-0.215-0.481-0.48V3.072c0-0.266,0.216-0.481,0.481-0.481l0,0c0.266,0,0.48,0.215,0.48,0.481V4.068z"/>
	<path display="inline" fill="#D51F26" stroke="#D51F26" stroke-miterlimit="10" d="M9.502,15.597c0,0.266-0.215,0.481-0.48,0.481
		l0,0c-0.266,0-0.481-0.215-0.481-0.481V14.6c0-0.265,0.216-0.48,0.481-0.48l0,0c0.266,0,0.48,0.215,0.48,0.48V15.597z"/>
	<path display="inline" fill="#D51F26" stroke="#D51F26" stroke-miterlimit="10" d="M13.394,5.688
		c-0.186,0.189-0.491,0.192-0.68,0.005l0,0c-0.189-0.186-0.192-0.49-0.005-0.68l0.698-0.711c0.186-0.189,0.491-0.192,0.68-0.005l0,0
		c0.189,0.186,0.192,0.491,0.005,0.68L13.394,5.688z"/>
	<path display="inline" fill="#D51F26" stroke="#D51F26" stroke-miterlimit="10" d="M4.75,14.344
		c-0.186,0.189-0.491,0.191-0.68,0.005l0,0c-0.189-0.186-0.192-0.491-0.006-0.68l0.698-0.709c0.187-0.19,0.492-0.193,0.68-0.006l0,0
		c0.19,0.186,0.192,0.49,0.006,0.68L4.75,14.344z"/>
	<path display="inline" fill="#D51F26" stroke="#D51F26" stroke-miterlimit="10" d="M13.407,14.344
		c0.186,0.189,0.491,0.191,0.68,0.005l0,0c0.189-0.186,0.192-0.491,0.005-0.68l-0.698-0.709c-0.186-0.19-0.491-0.193-0.68-0.006l0,0
		c-0.189,0.186-0.192,0.49-0.005,0.68L13.407,14.344z"/>
	<path display="inline" fill="#D51F26" stroke="#D51F26" stroke-miterlimit="10" d="M4.763,5.688C4.95,5.877,5.254,5.88,5.443,5.693
		l0,0c0.19-0.186,0.192-0.49,0.006-0.68L4.75,4.303c-0.186-0.19-0.491-0.192-0.68-0.006l0,0c-0.189,0.186-0.192,0.49-0.006,0.68
		L4.763,5.688z"/>
	<path display="inline" fill="#D51F26" stroke="#D51F26" stroke-miterlimit="10" d="M2.669,9.764c-0.266,0-0.481-0.215-0.481-0.481
		l0,0c0-0.266,0.215-0.48,0.481-0.48h0.997c0.265,0,0.481,0.215,0.481,0.48l0,0c0,0.266-0.216,0.481-0.481,0.481H2.669z"/>
	<path display="inline" fill="#D51F26" stroke="#D51F26" stroke-miterlimit="10" d="M14.202,9.764c-0.265,0-0.481-0.215-0.481-0.481
		l0,0c0-0.266,0.216-0.48,0.481-0.48h0.997c0.266,0,0.481,0.215,0.481,0.48l0,0c0,0.266-0.216,0.481-0.481,0.481H14.202z"/>
	<path display="inline" fill="none" stroke="#D51F26" stroke-width="2" stroke-miterlimit="10" d="M0.685,42.354
		c0,0,3.084-2.584,6.656,0.422c0,0,1.938,0.947,4.442-0.527c0,0,2.873-2.405,7.196,0.827c0,0,2.425,0.647,4.746-1.091
		c0,0,2.635-1.404,5.166,0.272c0,0,2.108,1.783,5.062,0.308c0,0,2.688-2.354,5.957-0.308"/>
	<path display="inline" fill="none" stroke="#D51F26" stroke-width="2" stroke-miterlimit="10" d="M4.16,41.501
		c0,0,0.637-4.474,14.766-5.526c0,0,14.447-0.021,17.531,5.498"/>
	
		<line display="inline" fill="none" stroke="#D51F26" stroke-width="2" stroke-miterlimit="10" x1="21.035" y1="35.975" x2="26.306" y2="23.109"/>
	
		<line display="inline" fill="none" stroke="#D51F26" stroke-width="2" stroke-miterlimit="10" x1="24.283" y1="36.348" x2="28.996" y2="24.164"/>
	<path display="inline" fill="none" stroke="#D51F26" stroke-width="2" stroke-miterlimit="10" d="M14.603,19.657
		c0,0,5.695-0.766,8.33,3.452c0,0,5.431-1.396,8.438,3.204c0,0,5.166-0.778,8.486,3.229c0,0,0.58-2.848-0.475-6.959
		c0,0-1.951-7.17-7.803-8.963C31.58,13.62,22.458,9.562,14.603,19.657z"/>
	<path display="inline" fill="none" stroke="#D51F26" stroke-width="2" stroke-miterlimit="10" d="M22.932,23.109
		c0,0,3.964-8.666,8.44-9.571"/>
	<path display="inline" fill="none" stroke="#D51F26" stroke-width="2" stroke-miterlimit="10" d="M32.065,13.785
		c0,0,1.781,7.822-0.696,12.527"/>
</g>
<g display="none">
	
		<rect x="34.232" y="9.083" display="inline" fill="none" stroke="#D51F26" stroke-width="2" stroke-miterlimit="10" width="4.141" height="10.682"/>
	
		<rect x="2.545" y="23.705" display="inline" fill="none" stroke="#D51F26" stroke-width="2" stroke-miterlimit="10" width="24.281" height="18.613"/>
	
		<line display="inline" fill="none" stroke="#D51F26" stroke-width="2" stroke-miterlimit="10" x1="38.886" y1="23.737" x2="20.672" y2="23.737"/>
	
		<line display="inline" fill="none" stroke="#D51F26" stroke-width="2" stroke-miterlimit="10" x1="38.886" y1="22.614" x2="38.886" y2="43.409"/>
	
		<line display="inline" fill="none" stroke="#D51F26" stroke-width="2" stroke-miterlimit="10" x1="36.302" y1="20.614" x2="36.302" y2="22.957"/>
	
		<circle display="inline" fill="none" stroke="#D51F26" stroke-width="2" stroke-miterlimit="10" cx="14.852" cy="7.621" r="4.781"/>
	<path display="inline" fill="none" stroke="#D51F26" stroke-width="2" stroke-miterlimit="10" d="M5.373,23.737
		c0-5.951,3.424-10.776,7.649-10.776c4.226,0,7.65,4.826,7.65,10.776H5.373z"/>
	<ellipse display="inline" fill="none" stroke="#D51F26" stroke-miterlimit="10" cx="28.906" cy="22.305" rx="2.08" ry="1.148"/>
</g>
<g display="none">
	
		<circle display="inline" fill="none" stroke="#D51F26" stroke-width="2" stroke-miterlimit="10" cx="20.049" cy="13.694" r="5.966"/>
	<g display="inline">
		<path fill="none" stroke="#D51F26" stroke-width="2" stroke-miterlimit="10" d="M28.43,32.814h3.215l0,0
			c0-7.265-5.19-13.155-11.596-13.155c-6.404,0-11.597,5.89-11.597,13.155l0,0h3.041"/>
	</g>
	<path display="inline" fill="none" stroke="#D51F26" stroke-width="2" stroke-miterlimit="10" d="M28.439,32.641
		c0,0,0.143,3.846,0.042,8.62H11.636c-0.06-2.581-0.056-6.995-0.056-8.62l0,0c0-1.625,1.069-2.942,2.386-2.942h12.085
		C27.371,29.698,28.439,31.016,28.439,32.641L28.439,32.641z"/>
	
		<line display="inline" fill="none" stroke="#D51F26" stroke-width="2" stroke-miterlimit="10" x1="0" y1="32.814" x2="11.537" y2="32.814"/>
	
		<line display="inline" fill="none" stroke="#D51F26" stroke-width="2" stroke-miterlimit="10" x1="29.744" y1="32.814" x2="34.914" y2="32.814"/>
	
		<line display="inline" fill="none" stroke="#D51F26" stroke-width="2" stroke-miterlimit="10" x1="39.554" y1="32.814" x2="41.667" y2="32.814"/>
	<g display="inline">
		<ellipse fill="none" stroke="#D51F26" stroke-miterlimit="10" cx="37.234" cy="30.94" rx="2.32" ry="0.896"/>
		<path fill="none" stroke="#D51F26" stroke-miterlimit="10" d="M34.914,30.94c0,0,0.406,4.844,0.43,5.382
			c0,0-0.021,0.764,0.629,0.764s2.506,0,2.506,0s0.6,0.071,0.645-0.786l0.432-5.359"/>
	</g>
	<path display="inline" fill="none" stroke="#D51F26" stroke-miterlimit="10" d="M5.626,39.107c0-1.512,0.656-2.173,1.466-2.173
		c0.809,0,1.465,0.661,1.465,2.173c0,1.511-0.656,1.736-1.465,1.736C6.282,40.844,5.626,40.618,5.626,39.107z"/>
	<path display="inline" fill="none" stroke="#D51F26" stroke-miterlimit="10" d="M7.106,40.844v3.479c0,0-0.226,1.219,1.102,1.156
		c0,0,1.922,0.25,1.969-1.016v-3.453v-0.625h1.219"/>
</g>
<g display="none">
	<circle display="inline" fill="none" stroke="#D51F26" stroke-width="2" stroke-miterlimit="10" cx="8.375" cy="6.476" r="3.375"/>
	<path display="inline" fill="none" stroke="#D51F26" stroke-width="2" stroke-miterlimit="10" d="M6.583,11.25l-2.75,4.417
		L2.75,17.5c0,0-2,2.75,0,3.917L6,23.75c0,0,1.501,1.334,2.375,0.334c0,0,1.167-1.375-0.667-2.542l-1.542-1.083
		c0,0-1.958-0.875-0.333-2.792l1.833-3.208"/>
	<path display="inline" fill="none" stroke="#D51F26" stroke-width="2" stroke-miterlimit="10" d="M14.067,25.979
		c1.213-1.522,1.141-2.604,1.141-2.604c0.188-4.875-4.5-7.25-4.5-7.25l0.688-0.875c1.313-2.063-0.688-4.375-0.688-4.375"/>
	<path display="inline" fill="none" stroke="#D51F26" stroke-width="2" stroke-miterlimit="10" d="M4.75,25.083
		c0,0-0.517,1.105-1,4.604c-0.333,2.409,1.551,2.188,1.551,2.188h10.282c0,0,2.229,0.5,0.539-2.766c0,0-1.505-2.319-1.883-3.969"/>
	<path display="inline" fill="none" stroke="#D51F26" stroke-width="2" stroke-miterlimit="10" d="M8.583,42.125
		c0,0.76-0.616,1.375-1.375,1.375l0,0c-0.759,0-1.375-0.615-1.375-1.375v-8.848c0-0.76,0.616-1.375,1.375-1.375l0,0
		c0.759,0,1.375,0.615,1.375,1.375V42.125z"/>
	<path display="inline" fill="none" stroke="#D51F26" stroke-width="2" stroke-miterlimit="10" d="M14.458,42.125
		c0,0.76-0.616,1.375-1.375,1.375l0,0c-0.759,0-1.375-0.615-1.375-1.375v-8.848c0-0.76,0.616-1.375,1.375-1.375l0,0
		c0.759,0,1.375,0.615,1.375,1.375V42.125z"/>
	
		<rect x="20.715" y="25.662" display="inline" fill="none" stroke="#D51F26" stroke-width="2" stroke-miterlimit="10" width="19.952" height="19.766"/>
	
		<rect x="33.833" y="8.476" display="inline" fill="none" stroke="#D51F26" stroke-width="2" stroke-miterlimit="10" width="4.25" height="12.399"/>
	
		<line display="inline" fill="none" stroke="#D51F26" stroke-width="2" stroke-miterlimit="10" x1="35.958" y1="20.168" x2="35.958" y2="26.083"/>
	<path display="inline" fill="none" stroke="#D51F26" stroke-width="2" stroke-miterlimit="10" d="M31.023,24.38
		c0,0.921-1.302,1.114-2.907,1.114s-2.907-0.193-2.907-1.114s1.302-1.667,2.907-1.667S31.023,23.459,31.023,24.38z"/>
</g>
<g display="none">
	<g display="inline">
		<path fill="none" stroke="#D51F26" stroke-width="2" stroke-miterlimit="10" d="M37.791,38.219c0,2.805,0.273,5.078-2.311,5.078
			H24.797c-2.583,0-2.679-2.256-2.599-5.078l0,0c0-2.804,0.016-5.078,2.599-5.078H35.48C38.064,33.141,37.791,35.415,37.791,38.219
			L37.791,38.219z"/>
		<path fill="none" stroke="#D51F26" stroke-width="2" stroke-miterlimit="10" d="M27.307,33.266c0,0-0.669-3.368,1.609-3.411
			l1.919,0.007c0,0,1.909-0.313,1.597,3.404"/>
		<line fill="none" stroke="#D51F26" stroke-width="2" stroke-miterlimit="10" x1="21.966" y1="38.344" x2="28.432" y2="38.344"/>
		<line fill="none" stroke="#D51F26" stroke-width="2" stroke-miterlimit="10" x1="31.77" y1="38.461" x2="37.556" y2="38.461"/>
		<path fill="none" stroke="#D51F26" stroke-miterlimit="10" d="M31.768,38.219c0,0.645,0.005,1.164-0.638,1.164h-2.278
			c-0.643,0-0.638-0.52-0.638-1.164l0,0c0-0.643-0.005-1.164,0.638-1.164h2.278C31.773,37.055,31.768,37.576,31.768,38.219
			L31.768,38.219z"/>
	</g>
	<g display="inline">
		<circle fill="none" stroke="#D51F26" stroke-width="2" stroke-miterlimit="10" cx="9.859" cy="7.837" r="3.375"/>
		<path fill="none" stroke="#D51F26" stroke-width="2" stroke-miterlimit="10" d="M8.067,12.612l-2.75,4.417l-1.083,1.833
			c0,0-2,2.75,0,3.917l3.25,2.333c0,0,1.501,1.334,2.375,0.334c0,0,1.167-1.375-0.667-2.542L7.651,21.82
			c0,0-1.958-0.875-0.333-2.792l1.833-3.208"/>
		<path fill="none" stroke="#D51F26" stroke-width="2" stroke-miterlimit="10" d="M15.551,27.34
			c1.213-1.521,1.141-2.604,1.141-2.604c0.188-4.875-4.5-7.25-4.5-7.25l0.688-0.875c1.313-2.063-0.688-4.375-0.688-4.375"/>
		<path fill="none" stroke="#D51F26" stroke-width="2" stroke-miterlimit="10" d="M6.234,26.445c0,0-0.517,1.105-1,4.604
			c-0.333,2.41,1.551,2.188,1.551,2.188h10.282c0,0,2.229,0.5,0.539-2.766c0,0-1.505-2.318-1.883-3.969"/>
		<path fill="none" stroke="#D51F26" stroke-width="2" stroke-miterlimit="10" d="M10.067,43.486c0,0.76-0.616,1.375-1.375,1.375
			l0,0c-0.759,0-1.375-0.615-1.375-1.375v-8.848c0-0.76,0.616-1.375,1.375-1.375l0,0c0.759,0,1.375,0.615,1.375,1.375V43.486z"/>
		<path fill="none" stroke="#D51F26" stroke-width="2" stroke-miterlimit="10" d="M15.942,43.486c0,0.76-0.616,1.375-1.375,1.375
			l0,0c-0.759,0-1.375-0.615-1.375-1.375v-8.848c0-0.76,0.616-1.375,1.375-1.375l0,0c0.759,0,1.375,0.615,1.375,1.375V43.486z"/>
	</g>
</g>
<g>
	<circle fill="none" stroke="#D52028" stroke-width="2" stroke-miterlimit="10" cx="23.781" cy="4.767" r="3.35"/>
	<path fill="none" stroke="#D52028" stroke-width="2" stroke-miterlimit="10" d="M19.462,7.813c-1.61,0.052-5.344,1.271-7.463,3.269
		c-3.526,3.325-2.656,3.107-5.327,7.104l-5.004,10.17c0,0-0.807,2.128,1.614,2.098l12.306,0.03c-0.987-0.005,2.21,0.11,1.578-2.128
		l-2.421-8.394c0,0-0.573-2.099,0.844-3.229l3.875-2.745c0,0,0.548-0.383,0.77,1.271c0,0,0.121,2.906,0.968,3.148l4.54,3.511
		c0,0,1.211,1.271,1.695,0.121c0,0,0.969-0.787,0-2.059L23.38,16.47c0,0-0.591-0.424-0.567-3.511V9.75"/>
	<path fill="#D52028" d="M37.477,33.382c0,0.456-0.409,0.825-0.912,0.825H21.273c-0.504,0-0.912-0.369-0.912-0.825l0,0
		c0-0.456,0.408-0.826,0.912-0.826h15.292C37.068,32.556,37.477,32.926,37.477,33.382L37.477,33.382z"/>
	<ellipse fill="none" stroke="#D52028" stroke-width="2" stroke-miterlimit="10" cx="35.754" cy="28.919" rx="2.078" ry="2.059"/>
	<path fill="none" stroke="#D52028" stroke-width="2" stroke-miterlimit="10" d="M8.791,43.196c0,1.054-0.854,1.907-1.907,1.907l0,0
		c-1.053,0-1.907-0.854-1.907-1.907v-11.64c0-1.052,0.854-0.938,1.907-0.938l0,0c1.053,0,1.907-0.113,1.907,0.938V43.196z"/>
	<path fill="none" stroke="#D52028" stroke-width="2" stroke-miterlimit="10" d="M14.678,43.196c0,1.054-0.854,1.907-1.907,1.907
		l0,0c-1.053,0-1.907-0.854-1.907-1.907v-11.64c0-1.052,0.854-0.938,1.907-0.938l0,0c1.053,0,1.907-0.113,1.907,0.938V43.196z"/>
	<path fill="#D52028" d="M24.12,44.254c0,0.815-0.291,1.477-0.65,1.477l0,0c-0.359,0-0.651-0.661-0.651-1.477v-9.01
		c0-0.815,0.292-0.729,0.651-0.729l0,0c0.359,0,0.65-0.087,0.65,0.729V44.254z"/>
	<path fill="#D52028" d="M35.354,44.254c0,0.815-0.291,1.477-0.65,1.477l0,0c-0.359,0-0.651-0.661-0.651-1.477v-9.01
		c0-0.815,0.292-0.729,0.651-0.729l0,0c0.359,0,0.65-0.087,0.65,0.729V44.254z"/>
	<path fill="#D52028" d="M26.081,40.325c0,0.486-0.291,0.881-0.65,0.881l0,0c-0.359,0-0.651-0.395-0.651-0.881v-5.376
		c0-0.486,0.292-0.435,0.651-0.435l0,0c0.359,0,0.65-0.052,0.65,0.435V40.325z"/>
	<path fill="#D52028" d="M33.489,40.325c0,0.486-0.291,0.881-0.65,0.881l0,0c-0.359,0-0.651-0.395-0.651-0.881v-5.376
		c0-0.486,0.292-0.435,0.651-0.435l0,0c0.359,0,0.65-0.052,0.65,0.435V40.325z"/>
	<path fill="none" stroke="#D52028" stroke-width="2" stroke-miterlimit="10" d="M28.87,27.065v-1.413c0,0-0.178-1.464,0.912-1.403
		c0,0,1.362-0.151,1.348,1.361c0,0,0.378,4.308-0.484,5.004c0,0-1.452,1.353-7.869,0.466c0,0-1.856-0.324-0.867-2.543l1.432-2.24
		c0,0-0.013-0.378-0.605-0.826l-1.474-1.151c0,0-0.551-0.384-0.188-1.23c0,0,0.431-0.989,1.056-0.687l3.798,2.503
		c0,0,0.883,0.605,0.54,1.371l-0.54,0.505c0,0-0.327,0.403,0.339,0.566h1.412C27.678,27.348,28.87,27.429,28.87,27.065z"/>
</g>
</svg>
