<?xml version="1.0" encoding="utf-8"?>
<!-- Generator: Adobe Illustrator 16.0.3, SVG Export Plug-In . SVG Version: 6.00 Build 0)  -->
<!DOCTYPE svg PUBLIC "-//W3C//DTD SVG 1.1//EN" "http://www.w3.org/Graphics/SVG/1.1/DTD/svg11.dtd">
<svg version="1.1" id="Layer_1" xmlns="http://www.w3.org/2000/svg" xmlns:xlink="http://www.w3.org/1999/xlink" x="0px" y="0px"
	 width="28.167px" height="28.792px" viewBox="0 0 28.167 28.792" enable-background="new 0 0 28.167 28.792" xml:space="preserve">
<rect x="-1.262" y="-0.814" display="none" width="29.765" height="29.909"/>
<circle fill="none" stroke="#FFFFFF" stroke-width="2" stroke-miterlimit="10" cx="14.295" cy="13.33" r="5.858"/>
<circle fill="#FFFFFF" cx="14.295" cy="12.41" r="1.513"/>
<g>
	<g>
		<path fill="#FFFFFF" d="M14.295,13.674c-1.134,0-2.053,0.918-2.053,2.052h4.106C16.348,14.592,15.429,13.674,14.295,13.674z"/>
	</g>
</g>
<line fill="none" stroke="#FFFFFF" stroke-width="2" stroke-miterlimit="10" x1="17.868" y1="9.159" x2="20.565" y2="6.461"/>
<line fill="none" stroke="#FFFFFF" stroke-width="2" stroke-miterlimit="10" x1="20.074" y1="15.72" x2="22.672" y2="17.192"/>
<line fill="none" stroke="#FFFFFF" stroke-width="2" stroke-miterlimit="10" x1="14.412" y1="19.188" x2="14.354" y2="23.1"/>
<line fill="none" stroke="#FFFFFF" stroke-width="2" stroke-miterlimit="10" x1="5.661" y1="17.258" x2="8.935" y2="15.355"/>
<ellipse fill="none" stroke="#FFFFFF" stroke-width="2" stroke-miterlimit="10" cx="3.596" cy="18.243" rx="2.431" ry="2.491"/>
<ellipse fill="none" stroke="#FFFFFF" stroke-width="2" stroke-miterlimit="10" cx="14.295" cy="25.168" rx="2.431" ry="2.491"/>
<ellipse fill="none" stroke="#FFFFFF" stroke-width="2" stroke-miterlimit="10" cx="24.665" cy="18.619" rx="2.431" ry="2.49"/>
<ellipse fill="none" stroke="#FFFFFF" stroke-width="2" stroke-miterlimit="10" cx="22.234" cy="4.793" rx="2.431" ry="2.491"/>
<g>
	<path fill="none" stroke="#FFFFFF" stroke-width="2" stroke-miterlimit="10" d="M20.437,3.273
		c-1.789-1.093-3.892-1.722-6.142-1.722c-1.997,0-3.529,0.32-5.178,1.196"/>
	<path fill="none" stroke="#FFFFFF" stroke-width="2" stroke-miterlimit="10" d="M25.798,15.979
		c0.193-0.846,0.295-1.727,0.295-2.631c0-2.527-0.794-4.868-2.147-6.788"/>
	<path fill="none" stroke="#FFFFFF" stroke-width="2" stroke-miterlimit="10" d="M16.966,24.843
		c2.656-0.614,4.969-2.127,6.602-4.199"/>
	<path fill="none" stroke="#FFFFFF" stroke-width="2" stroke-miterlimit="10" d="M14.295,25.146"/>
	<path fill="none" stroke="#FFFFFF" stroke-width="2" stroke-miterlimit="10" d="M4.828,20.389c1.667,2.237,4.108,3.865,6.928,4.483
		"/>
	<path fill="none" stroke="#FFFFFF" stroke-width="2" stroke-miterlimit="10" d="M10.986,8.821l-2.69-3.139
		C7.863,6.092,7.141,6.299,6.503,6.299c-0.496,0-0.957-0.154-1.341-0.416c-1.664,2.034-2.665,4.631-2.665,7.465
		c0,0.875,0.096,1.728,0.276,2.55"/>
	<path fill="none" stroke="#FFFFFF" stroke-width="2" stroke-miterlimit="10" d="M8.77,2.928c-0.348-0.939-1.228-1.61-2.267-1.61
		c-1.343,0-2.431,1.116-2.431,2.491c0,0.867,0.434,1.629,1.09,2.075C5.966,6.587,6.943,6.43,7.416,6.201
		C8.587,5.632,9.285,4.51,8.77,2.928z"/>
</g>
</svg>
