<svg width="24.012" height="29.611" xmlns="http://www.w3.org/2000/svg">

 <g>
  <title>background</title>
  <rect fill="none" id="canvas_background" height="402" width="582" y="-1" x="-1"/>
 </g>
 <g>
  <title>Layer 1</title>
  <g display="none" id="Layer_17">
   <path id="svg_1" d="m27.763,28.408c0,0.664 -0.423,1.203 -0.944,1.203l-26.134,0c-0.523,0 -0.947,-0.539 -0.947,-1.203l0,-27.206c0,-0.664 0.423,-1.202 0.947,-1.202l26.134,0c0.521,0 0.944,0.538 0.944,1.202l0,27.206l0,0z"/>
  </g>
  <g display="none" id="Layer_16">
   <g id="svg_2" display="inline">
    <path id="svg_3" d="m21.454,11.432l-2.767,0l0,1.68l2.338,0l0,0.94l-2.338,0l0,2.532l-1.221,0l0,-6.09l3.986,0l0.002,0.938l0,0z" fill="#FFFFFF"/>
    <path id="svg_4" d="m10.29,10.964c-0.401,-0.357 -0.951,-0.536 -1.653,-0.536l-2.33,0l0,6.091l1.222,0l0,-2.21l1.108,0c0.701,0 1.25,-0.178 1.652,-0.531c0.401,-0.354 0.603,-0.822 0.603,-1.404c0.001,-0.584 -0.201,-1.052 -0.602,-1.41zm-0.878,2.128c-0.177,0.187 -0.434,0.278 -0.775,0.278l-1.109,0l0,-2l1.108,0c0.343,0 0.602,0.096 0.775,0.286c0.176,0.193 0.263,0.434 0.263,0.725c0.002,0.288 -0.087,0.524 -0.262,0.711z" fill="#FFFFFF"/>
    <path id="svg_5" d="m13.922,10.492l-2.124,0l0,6.09l2.124,0c0.746,0 1.357,-0.237 1.842,-0.71c0.483,-0.472 0.725,-1.083 0.725,-1.83l0,-1.008c0,-0.743 -0.24,-1.354 -0.725,-1.83c-0.485,-0.474 -1.096,-0.712 -1.842,-0.712zm1.34,3.552c0,0.469 -0.123,0.853 -0.369,1.153c-0.244,0.298 -0.568,0.448 -0.971,0.448l-0.904,0l0,-4.213l0.904,0c0.401,0 0.727,0.15 0.971,0.449c0.246,0.3 0.369,0.681 0.369,1.147l0,1.016z" fill="#FFFFFF"/>
    <polygon id="svg_6" points="17.468,16.583 18.688,16.583 18.688,14.052 21.023,14.052 21.023,13.112 18.688,13.112     18.688,11.432 21.454,11.432 21.454,10.492 17.468,10.492   " fill="#FFFFFF"/>
   </g>
   <g id="svg_7" display="inline">
    <polygon id="svg_8" points="16.52,25.49 16.516,20.354 11.602,20.359 11.602,25.49 8.602,25.49 14.058,31.921 19.463,25.49       " fill="#FFFFFF"/>
   </g>
   <g id="svg_9" display="inline">
    <path id="svg_10" d="m20.604,27.934l1.315,0c0.839,0 1.521,-0.681 1.521,-1.521l0,-19.989l-4.75,0.023c-0.84,0 -1.521,-0.68 -1.521,-1.521l0,-3.398l-11.587,0c-0.84,0 -1.521,0.68 -1.521,1.52l0,23.366c0,0.84 0.681,1.521 1.521,1.521l1.396,0" stroke-miterlimit="10" stroke-width="2" stroke="#FFFFFF" fill="none"/>
    <path id="svg_11" d="m18.415,1.528l-1.245,0l0,3.753c0,0.839 0.682,1.52 1.521,1.52l4.748,0.029l0,-1.958l-5.024,-3.344z" stroke-miterlimit="10" stroke-width="2" stroke="#FFFFFF" fill="none"/>
   </g>
  </g>
  <g id="Layer_16_1_">
   <g id="svg_12"/>
   <g id="svg_17">
    <polygon id="svg_18" points="14.93871021270752,22.071428298950195 14.93871021270752,16.889427185058594 9.064715385437012,16.942426681518555 9.064715385437012,22.071428298950195 5.484715461730957,22.071428298950195 12.004715919494629,28.50242805480957 18.45571231842041,22.071428298950195 " fill="#FFFFFF"/>
   </g>
   <g id="svg_19">
    <path id="svg_20" d="m19.376714,26.66543l1.563,0c0.839,0 1.521,-0.656 1.521,-1.463l0,-17.233l0,-3.258c0,-0.921 -0.919,-1.453 -1.68,-1.443l-6.234,-0.01l-11.588,0c-0.84,0 -1.521,0.654 -1.521,1.461l0,20.48c0,0.809 0.682,1.465 1.521,1.465l1.585,0" stroke-miterlimit="10" stroke-width="2" stroke="#FFFFFF" fill="none"/>
   </g>
  </g>
  <g id="svg_21" display="none">
   <polygon id="svg_22" points="15.701,19.267 15.701,14.085 11.842,14.138 11.842,19.267 9.486,19.267    11.749,22.662 15.775,22.662 18.014,19.267  " fill="none"/>
   <path id="svg_23" d="m8.573,8.666l0.903,0c0.57,0 1.02,-0.145 1.348,-0.433c0.325,-0.289 0.49,-0.67 0.49,-1.145c0,-0.477 -0.163,-0.858 -0.49,-1.149c-0.328,-0.291 -0.775,-0.437 -1.347,-0.437l-1.899,0l0,4.963l0.995,0l0,-1.799zm0,-2.396l0.903,0c0.279,0 0.49,0.078 0.633,0.233c0.143,0.157 0.214,0.353 0.214,0.59c0.001,0.235 -0.072,0.427 -0.214,0.579c-0.144,0.153 -0.353,0.228 -0.631,0.228l-0.905,0l0,-1.63z" fill="none"/>
   <path id="svg_24" d="m15.283,9.94c0.394,-0.386 0.591,-0.883 0.591,-1.491l0,-0.821c0,-0.607 -0.197,-1.104 -0.591,-1.492c-0.395,-0.387 -0.893,-0.581 -1.5,-0.581l-1.73,0l0,4.962l1.73,0c0.61,0.001 1.108,-0.192 1.5,-0.577zm-2.236,-3.618l0.736,0c0.327,0 0.591,0.122 0.791,0.365c0.199,0.244 0.301,0.554 0.301,0.935l0,0.828c0,0.382 -0.102,0.695 -0.301,0.94c-0.2,0.243 -0.464,0.365 -0.791,0.365l-0.736,0l0,-3.433z" fill="none"/>
   <polygon id="svg_25" points="17.666,8.456 19.57,8.456 19.57,7.689 17.666,7.689 17.666,6.322 19.92,6.322    19.92,5.556 16.672,5.556 16.672,10.518 17.666,10.518  " fill="none"/>
   <path id="svg_26" d="m10.109,7.673c0.142,-0.152 0.215,-0.344 0.214,-0.579c0,-0.237 -0.071,-0.433 -0.214,-0.59c-0.142,-0.156 -0.353,-0.234 -0.632,-0.234l-0.904,0l0,1.63l0.904,0c0.279,0 0.488,-0.075 0.632,-0.227z" fill="#FFFFFF"/>
   <path id="svg_27" d="m14.574,9.389c0.199,-0.245 0.301,-0.558 0.301,-0.94l0,-0.827c0,-0.38 -0.102,-0.69 -0.301,-0.935c-0.2,-0.243 -0.464,-0.365 -0.791,-0.365l-0.736,0l0,3.432l0.736,0c0.327,0 0.591,-0.122 0.791,-0.365z" fill="#FFFFFF"/>
   <path id="svg_28" d="m21.936,1.673l-4.533,0l-12.374,0c-0.897,0 -1.625,0.54 -1.625,1.208l0,18.572c0,0.668 0.728,1.209 1.625,1.209l4.182,0l2.538,0l-2.263,-3.395l2.355,0l0,-5.129l3.859,-0.053l0,5.182l2.313,0l-2.238,3.395l3.357,0l3.34,0c0.896,0 1.62,-0.541 1.62,-1.209l0,-15.889l0,-2.833c0.004,-0.761 -0.863,-1.099 -2.156,-1.058zm-5.264,8.845l0,-4.962l0,-0.001l3.248,0l0,0.001l0,0.766l-2.254,0l0,1.368l1.904,0l0,0.766l-1.904,0l0,2.062l0,0.001l-0.994,-0.001l0,0zm-4.619,-4.963l1.73,0c0.607,0 1.105,0.194 1.5,0.581c0.394,0.389 0.591,0.885 0.591,1.492l0,0.821c0,0.608 -0.197,1.105 -0.591,1.491c-0.395,0.385 -0.893,0.578 -1.5,0.578l-1.73,0l0,-4.963zm-4.475,-0.052l1.899,0c0.571,0 1.019,0.146 1.347,0.437c0.327,0.291 0.49,0.672 0.49,1.149c0,0.474 -0.165,0.855 -0.49,1.145c-0.328,0.288 -0.777,0.433 -1.348,0.433l-0.903,0l0,1.8l-0.995,0l0,-4.964zm14.451,7.189l-16.75,0l0,-0.77l16.75,0l0,0.77z" fill="#FFFFFF"/>
   <rect id="svg_29" height="0.001" width="0.994" fill="#FFFFFF" y="10.518" x="16.672"/>
   <rect id="svg_30" height="0.001" width="3.248" fill="#FFFFFF" y="5.555" x="16.672"/>
   <polygon id="svg_31" points="13.772,25.699 15.775,22.662 11.749,22.662  " fill="#FFFFFF"/>
  </g>
 </g>
</svg>