<?xml version="1.0" encoding="utf-8"?>
<!-- Generator: Adobe Illustrator 16.0.3, SVG Export Plug-In . SVG Version: 6.00 Build 0)  -->
<!DOCTYPE svg PUBLIC "-//W3C//DTD SVG 1.1//EN" "http://www.w3.org/Graphics/SVG/1.1/DTD/svg11.dtd">
<svg version="1.1" id="Layer_1" xmlns="http://www.w3.org/2000/svg" xmlns:xlink="http://www.w3.org/1999/xlink" x="0px" y="0px"
	 width="41.667px" height="46.5px" viewBox="0 0 41.667 46.5" enable-background="new 0 0 41.667 46.5" xml:space="preserve">
<image display="none" overflow="visible" width="581" height="328" xlink:href="F52A5642.jpg"  transform="matrix(0.1346 0 0 0.1346 -16.5098 2.3604)">
</image>
<path fill="none" stroke="#D51F26" stroke-width="2" stroke-miterlimit="10" d="M13.19,19.787c0.507,2.764-1.321,5.413-4.083,5.922
	l0,0c-2.763,0.506-5.413-1.322-5.92-4.085l0,0c-0.507-2.763,1.321-5.413,4.084-5.92l0,0C10.032,15.197,12.684,17.023,13.19,19.787
	L13.19,19.787z"/>
<path fill="none" stroke="#D51F26" stroke-width="2" stroke-miterlimit="10" d="M14.811,27.746c0,0,0.233,1.82,1.74,2.662
	l13.774,7.546c0,0,1.343,0.685,3.246,0l8.058-2.045c0,0,1.683-0.48,2.887-0.119l7.216,2.646c0,0,4.57,1.443,4.931-2.165
	c0,0,1.445-3.127-2.285-5.051L46.2,27.972c-0.151-0.125-3.815-1.134-6.614,0l-5.172,1.805c0,0-2.015,0.632-4.449-0.842l-9.38-5.412
	c0,0-3.126-1.093-4.69,1.101C15.894,24.623,14.811,25.673,14.811,27.746z"/>
<path fill="#D51F26" d="M53.929,40.487l-23.996,0.167L9.846,29.176c-1.096-0.626-2.393-0.42-2.897,0.462
	c-0.502,0.883-0.022,2.105,1.074,2.73l20.549,11.741c0.012,0.005,0.03,0.009,0.042,0.014c0.125,0.069,0.269,0.14,0.445,0.212
	l24.896-0.17c1.329-0.01,2.401-0.84,2.394-1.855C56.337,41.294,55.258,40.479,53.929,40.487z"/>
<line fill="none" stroke="#D52028" stroke-width="2" stroke-miterlimit="10" x1="30.932" y1="4.891" x2="35.725" y2="4.891"/>
<g>
	<path fill="none" stroke="#D51F26" stroke-width="2" stroke-miterlimit="10" d="M35.945,15.988c0.006-0.1,0.014-0.203,0.014-0.333
		V2.72c0-1.118-0.639-1.015-2.906-1.015c-2.098,0-2.905-0.275-2.905,1.015v12.935c0,0.097,0.01,0.178,0.021,0.256"/>
	<path fill="none" stroke="#D51F26" stroke-width="2" stroke-miterlimit="10" d="M35.958,15.286l-0.014,0.702
		c1.138,0.762,1.885,1.941,1.885,3.281c0,2.301-2.161,4.166-4.827,4.166s-4.826-1.865-4.826-4.166c0-1.383,0.791-2.599,1.991-3.357
		l-0.021-0.625"/>
</g>
<path fill="none" stroke="#D52028" stroke-width="2" stroke-miterlimit="10" d="M34.984,19.104c0,0-0.433,2.048-2.545,1.866"/>
<path fill="#D52028" d="M35.875,7.813c0,0.432-0.28,0.781-0.625,0.781h-1.875c-0.345,0-0.625-0.35-0.625-0.781l0,0
	c0-0.432,0.28-0.781,0.625-0.781h1.875C35.594,7.031,35.875,7.381,35.875,7.813L35.875,7.813z"/>
<path fill="#D52028" d="M35.875,10.531c0,0.432-0.28,0.781-0.625,0.781h-1.875c-0.345,0-0.625-0.35-0.625-0.781l0,0
	c0-0.432,0.28-0.781,0.625-0.781h1.875C35.594,9.75,35.875,10.1,35.875,10.531L35.875,10.531z"/>
<path fill="#D52028" d="M35.875,13.25c0,0.432-0.28,0.781-0.625,0.781h-1.875c-0.345,0-0.625-0.35-0.625-0.781l0,0
	c0-0.432,0.28-0.781,0.625-0.781h1.875C35.594,12.469,35.875,12.818,35.875,13.25L35.875,13.25z"/>
</svg>
