<?xml version="1.0" encoding="utf-8"?>
<!-- Generator: Adobe Illustrator 16.0.3, SVG Export Plug-In . SVG Version: 6.00 Build 0)  -->
<!DOCTYPE svg PUBLIC "-//W3C//DTD SVG 1.1//EN" "http://www.w3.org/Graphics/SVG/1.1/DTD/svg11.dtd">
<svg version="1.1" id="Layer_1" xmlns="http://www.w3.org/2000/svg" xmlns:xlink="http://www.w3.org/1999/xlink" x="0px" y="0px"
	 width="41.667px" height="46.5px" viewBox="0 0 41.667 46.5" enable-background="new 0 0 41.667 46.5" xml:space="preserve">
<g>
	<circle fill="none" stroke="#3B66AF" stroke-width="2" stroke-miterlimit="10" cx="20.96" cy="12.384" r="6.244"/>
	<g>
		<path fill="none" stroke="#3B66AF" stroke-width="2" stroke-miterlimit="10" d="M29.732,32.396h3.364l0,0
			c0-7.606-5.431-13.768-12.136-13.768c-6.705,0-12.138,6.165-12.138,13.768l0,0h3.182"/>
	</g>
	<path fill="none" stroke="#3B66AF" stroke-width="2" stroke-miterlimit="10" d="M29.742,32.216c0,0,0.151,4.023,0.045,9.02H12.155
		c-0.06-2.701-0.058-7.32-0.058-9.02l0,0c0-1.703,1.119-3.079,2.497-3.079h12.65C28.625,29.135,29.742,30.513,29.742,32.216
		L29.742,32.216z"/>
	<line fill="none" stroke="#3B66AF" stroke-width="2" stroke-miterlimit="10" x1="-0.023" y1="32.396" x2="12.051" y2="32.396"/>
	<line fill="none" stroke="#3B66AF" stroke-width="2" stroke-miterlimit="10" x1="31.109" y1="32.396" x2="41.69" y2="32.396"/>
</g>
</svg>
