<?xml version="1.0" encoding="utf-8"?>
<!-- Generator: Adobe Illustrator 16.0.3, SVG Export Plug-In . SVG Version: 6.00 Build 0)  -->
<!DOCTYPE svg PUBLIC "-//W3C//DTD SVG 1.1//EN" "http://www.w3.org/Graphics/SVG/1.1/DTD/svg11.dtd">
<svg version="1.1" id="Layer_2" xmlns="http://www.w3.org/2000/svg" xmlns:xlink="http://www.w3.org/1999/xlink" x="0px" y="0px"
	 width="41.667px" height="46.5px" viewBox="0 0 41.667 46.5" enable-background="new 0 0 41.667 46.5" xml:space="preserve">
<circle fill="none" stroke="#D51F26" stroke-width="2" stroke-miterlimit="10" cx="21.454" cy="10.322" r="6.781"/>
<path fill="none" stroke="#D51F26" stroke-width="2" stroke-miterlimit="10" d="M31.075,22.491l-2.219-1.994
	c-2.077-1.769-4.854-2.851-7.904-2.851c-3.258,0-6.204,1.231-8.316,3.216l-0.784,0.768l-0.6,0.52"/>
<line fill="none" stroke="#D51F26" stroke-width="2" stroke-miterlimit="10" x1="20.951" y1="26.168" x2="20.951" y2="42.695"/>
<path fill="none" stroke="#D51F26" stroke-width="2" stroke-miterlimit="10" d="M7.842,31.309c0,1.724-1.398,3.123-3.124,3.123l0,0
	c-1.725,0-3.123-1.399-3.123-3.123v-2.636c0-1.726,1.398-3.124,3.123-3.124l0,0c1.726,0,3.124,1.398,3.124,3.124V31.309z"/>
<g>
	<path fill="none" stroke="#D51F26" stroke-width="2" stroke-miterlimit="10" d="M4.718,34.432v3.867c0,0,11.79-0.322,15.907,4.226
		l0.827,0.435c0,0,6.863-5.742,15.854-4.768v-3.76c-1.725,0-3.121-1.399-3.121-3.123v-2.636c0-1.726,1.396-3.124,3.121-3.124v-3.823
		c0,0-7.336-0.108-15.854,4.117l-0.502,0.325c0,0-7.851-5.309-16.232-4.442v3.829"/>
	<path fill="none" stroke="#D51F26" stroke-width="2" stroke-miterlimit="10" d="M37.307,34.432c1.726,0,3.124-1.399,3.124-3.123
		v-2.636c0-1.726-1.398-3.124-3.124-3.124"/>
	<path fill="none" stroke="#D51F26" stroke-width="2" stroke-miterlimit="10" d="M4.593,26.168"/>
</g>
<path fill="none" stroke="#D51F26" stroke-width="2" stroke-miterlimit="10" d="M24.131,29.271c0,0,4.141-2.208,6.943-1.776"/>
</svg>
