<?xml version="1.0" encoding="utf-8"?>
<!-- Generator: Adobe Illustrator 16.0.3, SVG Export Plug-In . SVG Version: 6.00 Build 0)  -->
<!DOCTYPE svg PUBLIC "-//W3C//DTD SVG 1.1//EN" "http://www.w3.org/Graphics/SVG/1.1/DTD/svg11.dtd">
<svg version="1.1" id="Layer_1" xmlns="http://www.w3.org/2000/svg" xmlns:xlink="http://www.w3.org/1999/xlink" x="0px" y="0px"
	 width="42px" height="45px" viewBox="0 0 42 45" enable-background="new 0 0 42 45" xml:space="preserve">
<g>
	<circle fill="none" stroke="#D52028" stroke-width="2" stroke-miterlimit="10" cx="32.502" cy="32.819" r="4.138"/>
	<g>
		<path fill="none" stroke="#D52028" stroke-width="2" stroke-miterlimit="10" d="M32.502,36.958c-3.846,0-6.965,3.118-6.965,6.965
			h13.931C39.468,40.076,36.348,36.958,32.502,36.958z"/>
	</g>
</g>
<path fill="none" stroke="#D52027" stroke-width="3" stroke-miterlimit="10" d="M35.645,23.251V7.308
	c0-0.954-0.879-1.728-1.963-1.728H5.558c-1.085,0-1.964,0.774-1.964,1.728v31.887c0,0.955,0.879,1.729,1.964,1.729H21"/>
<path fill="none" stroke="#D52027" stroke-width="2" stroke-miterlimit="10" d="M28.264,11.376c1.364,0,2.469,1.105,2.469,2.468
	c0,1.363-1.104,2.468-2.469,2.468c-0.624,0-1.194-0.231-1.629-0.614c-0.515-0.452-0.839-1.115-0.839-1.854
	c0,0-0.12-1.074,0.713-1.907"/>
<path fill="none" stroke="#D52027" stroke-width="2" stroke-miterlimit="10" d="M28.367,20.315c1.364,0,2.469,1.105,2.469,2.468
	c0,1.363-1.104,2.468-2.469,2.468c-0.624,0-1.194-0.231-1.629-0.614c-0.515-0.452-0.839-1.115-0.839-1.854
	c0,0-0.12-1.074,0.713-1.907"/>
<path fill="#D52027" d="M22.5,13.845c0,0.629-0.259,1.139-0.576,1.139H8.784c-0.317,0-0.575-0.509-0.575-1.139l0,0
	c0-0.629,0.258-1.139,0.575-1.139h13.14C22.241,12.706,22.5,13.216,22.5,13.845L22.5,13.845z"/>
<path fill="#D52027" d="M22.5,23.113c0,0.629-0.259,1.139-0.576,1.139H8.784c-0.317,0-0.575-0.509-0.575-1.139l0,0
	c0-0.629,0.258-1.139,0.575-1.139h13.14C22.241,21.974,22.5,22.484,22.5,23.113L22.5,23.113z"/>
<path fill="#D52027" d="M22.5,32.382c0,0.629-0.259,1.139-0.576,1.139H8.784c-0.317,0-0.575-0.509-0.575-1.139l0,0
	c0-0.629,0.258-1.139,0.575-1.139h13.14C22.241,31.243,22.5,31.753,22.5,32.382L22.5,32.382z"/>
</svg>
