<?xml version="1.0" encoding="utf-8"?>
<!-- Generator: Adobe Illustrator 16.0.3, SVG Export Plug-In . SVG Version: 6.00 Build 0)  -->
<!DOCTYPE svg PUBLIC "-//W3C//DTD SVG 1.1//EN" "http://www.w3.org/Graphics/SVG/1.1/DTD/svg11.dtd">
<svg version="1.1" id="Layer_1" xmlns="http://www.w3.org/2000/svg" xmlns:xlink="http://www.w3.org/1999/xlink" x="0px" y="0px"
	 width="41.667px" height="46.5px" viewBox="0 0 41.667 46.5" enable-background="new 0 0 41.667 46.5" xml:space="preserve">
<g>
	<circle fill="none" stroke="#D51F26" stroke-width="2" stroke-miterlimit="10" cx="9.039" cy="9.283" r="2.8"/>
	<path fill="#D51F26" stroke="#D51F26" stroke-miterlimit="10" d="M9.502,4.068c0,0.266-0.215,0.48-0.48,0.48l0,0
		c-0.266,0-0.481-0.215-0.481-0.48V3.072c0-0.266,0.216-0.481,0.481-0.481l0,0c0.266,0,0.48,0.215,0.48,0.481V4.068z"/>
	<path fill="#D51F26" stroke="#D51F26" stroke-miterlimit="10" d="M9.502,15.597c0,0.266-0.215,0.481-0.48,0.481l0,0
		c-0.266,0-0.481-0.215-0.481-0.481V14.6c0-0.265,0.216-0.48,0.481-0.48l0,0c0.266,0,0.48,0.215,0.48,0.48V15.597z"/>
	<path fill="#D51F26" stroke="#D51F26" stroke-miterlimit="10" d="M13.394,5.688c-0.186,0.189-0.491,0.192-0.68,0.005l0,0
		c-0.189-0.186-0.192-0.49-0.005-0.68l0.698-0.711c0.186-0.189,0.491-0.192,0.68-0.005l0,0c0.189,0.186,0.192,0.491,0.005,0.68
		L13.394,5.688z"/>
	<path fill="#D51F26" stroke="#D51F26" stroke-miterlimit="10" d="M4.75,14.344c-0.186,0.189-0.491,0.191-0.68,0.005l0,0
		c-0.189-0.186-0.192-0.491-0.006-0.68l0.698-0.709c0.187-0.19,0.492-0.193,0.68-0.006l0,0c0.19,0.186,0.192,0.49,0.006,0.68
		L4.75,14.344z"/>
	<path fill="#D51F26" stroke="#D51F26" stroke-miterlimit="10" d="M13.407,14.344c0.186,0.189,0.491,0.191,0.68,0.005l0,0
		c0.189-0.186,0.192-0.491,0.005-0.68l-0.698-0.709c-0.186-0.19-0.491-0.193-0.68-0.006l0,0c-0.189,0.186-0.192,0.49-0.005,0.68
		L13.407,14.344z"/>
	<path fill="#D51F26" stroke="#D51F26" stroke-miterlimit="10" d="M4.763,5.688C4.95,5.877,5.254,5.88,5.443,5.693l0,0
		c0.19-0.186,0.192-0.49,0.006-0.68L4.75,4.303c-0.186-0.19-0.491-0.192-0.68-0.006l0,0c-0.189,0.186-0.192,0.49-0.006,0.68
		L4.763,5.688z"/>
	<path fill="#D51F26" stroke="#D51F26" stroke-miterlimit="10" d="M2.669,9.764c-0.266,0-0.481-0.215-0.481-0.481l0,0
		c0-0.266,0.215-0.48,0.481-0.48h0.997c0.265,0,0.481,0.215,0.481,0.48l0,0c0,0.266-0.216,0.481-0.481,0.481H2.669z"/>
	<path fill="#D51F26" stroke="#D51F26" stroke-miterlimit="10" d="M14.202,9.764c-0.265,0-0.481-0.215-0.481-0.481l0,0
		c0-0.266,0.216-0.48,0.481-0.48h0.997c0.266,0,0.481,0.215,0.481,0.48l0,0c0,0.266-0.216,0.481-0.481,0.481H14.202z"/>
	<path fill="none" stroke="#D51F26" stroke-width="2" stroke-miterlimit="10" d="M0.685,42.354c0,0,3.084-2.584,6.656,0.422
		c0,0,1.938,0.947,4.442-0.526c0,0,2.873-2.405,7.196,0.827c0,0,2.425,0.646,4.746-1.092c0,0,2.635-1.403,5.166,0.272
		c0,0,2.108,1.783,5.062,0.308c0,0,2.688-2.354,5.957-0.308"/>
	<path fill="none" stroke="#D51F26" stroke-width="2" stroke-miterlimit="10" d="M4.16,41.501c0,0,0.637-4.474,14.766-5.526
		c0,0,14.447-0.021,17.531,5.498"/>
	<line fill="none" stroke="#D51F26" stroke-width="2" stroke-miterlimit="10" x1="21.035" y1="35.975" x2="26.306" y2="23.109"/>
	<line fill="none" stroke="#D51F26" stroke-width="2" stroke-miterlimit="10" x1="24.283" y1="36.348" x2="28.996" y2="24.164"/>
	<path fill="none" stroke="#D51F26" stroke-width="2" stroke-miterlimit="10" d="M14.603,19.657c0,0,5.695-0.766,8.33,3.452
		c0,0,5.431-1.396,8.438,3.204c0,0,5.166-0.777,8.486,3.229c0,0,0.58-2.849-0.475-6.959c0,0-1.951-7.17-7.803-8.963
		C31.58,13.62,22.458,9.562,14.603,19.657z"/>
	<path fill="none" stroke="#D51F26" stroke-width="2" stroke-miterlimit="10" d="M22.932,23.109c0,0,3.964-8.666,8.44-9.571"/>
	<path fill="none" stroke="#D51F26" stroke-width="2" stroke-miterlimit="10" d="M32.065,13.785c0,0,1.781,7.822-0.696,12.527"/>
</g>
</svg>
