<?xml version="1.0" encoding="utf-8"?>
<!-- Generator: Adobe Illustrator 16.0.3, SVG Export Plug-In . SVG Version: 6.00 Build 0)  -->
<!DOCTYPE svg PUBLIC "-//W3C//DTD SVG 1.1//EN" "http://www.w3.org/Graphics/SVG/1.1/DTD/svg11.dtd">
<svg version="1.1" id="Layer_1" xmlns="http://www.w3.org/2000/svg" xmlns:xlink="http://www.w3.org/1999/xlink" x="0px" y="0px"
	 width="41.667px" height="46.5px" viewBox="0 0 41.667 46.5" enable-background="new 0 0 41.667 46.5" xml:space="preserve">
<circle fill="#FFFFFF" stroke="#3B66AF" stroke-width="2" stroke-miterlimit="10" cx="27.346" cy="12.445" r="4.714"/>
<path fill="#FFFFFF" stroke="#3B66AF" stroke-width="2" stroke-miterlimit="10" d="M34.035,20.903l-1.543-1.385
	c-1.443-1.229-3.373-1.982-5.494-1.982c-2.266,0-4.727,0.901-6.32,2.248l-1.029,0.998l-1.283,1.25"/>
<line fill="none" stroke="#3B66AF" stroke-width="2" stroke-miterlimit="10" x1="26.998" y1="23.462" x2="26.998" y2="34.951"/>
<g>
	<path fill="#FFFFFF" stroke="#3B66AF" stroke-width="2" stroke-miterlimit="10" d="M26.181,34.559l1.163,0.576
		c0,0,4.771-3.99,11.021-3.314v-2.614c-1.197,0-2.168-0.97-2.168-2.17v-1.833c0-1.2,0.971-2.171,2.168-2.171v-2.658
		c0,0-5.099-0.076-11.021,2.861l-0.886,0.432c0,0-1.083,0.677-1.874,1.054"/>
	<path fill="#FFFFFF" stroke="#3B66AF" stroke-width="2" stroke-miterlimit="10" d="M38.367,29.205c1.199,0,2.172-0.971,2.172-2.17
		v-1.833c0-1.2-0.973-2.171-2.172-2.171"/>
	<path fill="#FFFFFF" stroke="#3B66AF" stroke-width="2" stroke-miterlimit="10" d="M15.625,23.462"/>
</g>
<path fill="#FFFFFF" stroke="#3B66AF" stroke-width="2" stroke-miterlimit="10" d="M29.207,25.62c0,0,2.881-1.536,4.828-1.237"/>
<circle fill="none" stroke="#3B66AF" stroke-width="2" stroke-miterlimit="10" cx="14.934" cy="16.718" r="4.714"/>
<path fill="none" stroke="#3B66AF" stroke-width="2" stroke-miterlimit="10" d="M21.623,25.178l-1.542-1.386
	c-1.444-1.23-3.375-1.983-5.493-1.983c-2.268,0-4.316,0.857-5.781,2.236L8.258,24.58l-0.417,0.359"/>
<line fill="none" stroke="#3B66AF" stroke-width="2" stroke-miterlimit="10" x1="14.583" y1="27.734" x2="14.583" y2="39.223"/>
<path fill="none" stroke="#3B66AF" stroke-width="2" stroke-miterlimit="10" d="M5.47,31.309c0,1.197-0.972,2.172-2.172,2.172l0,0
	c-1.2,0-2.17-0.975-2.17-2.172v-1.834c0-1.197,0.97-2.17,2.17-2.17l0,0c1.2,0,2.172,0.973,2.172,2.17V31.309z"/>
<g>
	<path fill="none" stroke="#3B66AF" stroke-width="2" stroke-miterlimit="10" d="M3.298,33.479v2.688c0,0,7.577,0.332,11.058,2.937
		l0.577,0.305c0,0,4.77-3.991,11.021-3.314V33.48c-1.201,0-2.172-0.975-2.172-2.172v-1.834c0-1.197,0.971-2.17,2.172-2.17v-2.656
		c0,0-5.1-0.078-11.021,2.859l-0.35,0.227c0,0-5.458-3.689-11.285-3.086v2.66"/>
	<path fill="none" stroke="#3B66AF" stroke-width="2" stroke-miterlimit="10" d="M25.955,33.479c1.2,0,2.172-0.974,2.172-2.17
		v-1.834c0-1.199-0.972-2.172-2.172-2.172"/>
	<path fill="none" stroke="#3B66AF" stroke-width="2" stroke-miterlimit="10" d="M3.212,27.734"/>
</g>
<path fill="none" stroke="#3B66AF" stroke-width="2" stroke-miterlimit="10" d="M16.795,35.001c0,0,2.878-1.535,4.826-1.233"/>
</svg>
