<?xml version="1.0" encoding="utf-8"?>
<!-- Generator: Adobe Illustrator 16.0.3, SVG Export Plug-In . SVG Version: 6.00 Build 0)  -->
<!DOCTYPE svg PUBLIC "-//W3C//DTD SVG 1.1//EN" "http://www.w3.org/Graphics/SVG/1.1/DTD/svg11.dtd">
<svg version="1.1" id="Layer_1" xmlns="http://www.w3.org/2000/svg" xmlns:xlink="http://www.w3.org/1999/xlink" x="0px" y="0px"
	 width="41.667px" height="46.5px" viewBox="0 0 41.667 46.5" enable-background="new 0 0 41.667 46.5" xml:space="preserve">
<g>
	<circle fill="none" stroke="#D51F26" stroke-width="2" stroke-miterlimit="10" cx="8.375" cy="6.476" r="3.375"/>
	<path fill="none" stroke="#D51F26" stroke-width="2" stroke-miterlimit="10" d="M6.583,11.25l-2.75,4.417L2.75,17.5
		c0,0-2,2.75,0,3.917L6,23.75c0,0,1.501,1.334,2.375,0.334c0,0,1.167-1.375-0.667-2.542l-1.542-1.083c0,0-1.958-0.875-0.333-2.792
		l1.833-3.208"/>
	<path fill="none" stroke="#D51F26" stroke-width="2" stroke-miterlimit="10" d="M14.067,25.979
		c1.213-1.521,1.141-2.604,1.141-2.604c0.188-4.875-4.5-7.25-4.5-7.25l0.688-0.875c1.313-2.063-0.688-4.375-0.688-4.375"/>
	<path fill="none" stroke="#D51F26" stroke-width="2" stroke-miterlimit="10" d="M4.75,25.083c0,0-0.517,1.104-1,4.604
		c-0.333,2.408,1.551,2.188,1.551,2.188h10.282c0,0,2.229,0.5,0.539-2.766c0,0-1.505-2.319-1.883-3.969"/>
	<path fill="none" stroke="#D51F26" stroke-width="2" stroke-miterlimit="10" d="M8.583,42.125c0,0.76-0.616,1.375-1.375,1.375l0,0
		c-0.759,0-1.375-0.615-1.375-1.375v-8.848c0-0.76,0.616-1.375,1.375-1.375l0,0c0.759,0,1.375,0.615,1.375,1.375V42.125z"/>
	<path fill="none" stroke="#D51F26" stroke-width="2" stroke-miterlimit="10" d="M14.458,42.125c0,0.76-0.616,1.375-1.375,1.375l0,0
		c-0.759,0-1.375-0.615-1.375-1.375v-8.848c0-0.76,0.616-1.375,1.375-1.375l0,0c0.759,0,1.375,0.615,1.375,1.375V42.125z"/>
	
		<rect x="20.715" y="25.662" fill="none" stroke="#D51F26" stroke-width="2" stroke-miterlimit="10" width="19.953" height="19.766"/>
	<rect x="33.833" y="8.476" fill="none" stroke="#D51F26" stroke-width="2" stroke-miterlimit="10" width="4.25" height="12.399"/>
	<line fill="none" stroke="#D51F26" stroke-width="2" stroke-miterlimit="10" x1="35.958" y1="20.168" x2="35.958" y2="26.083"/>
	<path fill="none" stroke="#D51F26" stroke-width="2" stroke-miterlimit="10" d="M31.023,24.38c0,0.921-1.302,1.114-2.906,1.114
		c-1.605,0-2.908-0.193-2.908-1.114s1.303-1.667,2.908-1.667C29.721,22.713,31.023,23.459,31.023,24.38z"/>
</g>
</svg>
