<?xml version="1.0" encoding="utf-8"?>
<!-- Generator: Adobe Illustrator 16.0.3, SVG Export Plug-In . SVG Version: 6.00 Build 0)  -->
<!DOCTYPE svg PUBLIC "-//W3C//DTD SVG 1.1//EN" "http://www.w3.org/Graphics/SVG/1.1/DTD/svg11.dtd">
<svg version="1.1" id="Layer_1" xmlns="http://www.w3.org/2000/svg" xmlns:xlink="http://www.w3.org/1999/xlink" x="0px" y="0px"
	 width="41.667px" height="46.5px" viewBox="0 0 41.667 46.5" enable-background="new 0 0 41.667 46.5" xml:space="preserve">
<g>
	<circle fill="none" stroke="#D52028" stroke-width="2" stroke-miterlimit="10" cx="23.781" cy="4.767" r="3.35"/>
	<path fill="none" stroke="#D52028" stroke-width="2" stroke-miterlimit="10" d="M19.462,7.813c-1.61,0.052-5.344,1.271-7.463,3.269
		c-3.526,3.325-2.656,3.107-5.327,7.104L1.668,28.355c0,0-0.807,2.129,1.614,2.099l12.306,0.03c-0.987-0.006,2.21,0.109,1.578-2.129
		l-2.421-8.394c0,0-0.573-2.099,0.844-3.229l3.875-2.745c0,0,0.548-0.383,0.77,1.271c0,0,0.121,2.906,0.968,3.148l4.54,3.511
		c0,0,1.211,1.271,1.695,0.121c0,0,0.969-0.787,0-2.059l-4.057-3.51c0,0-0.592-0.424-0.567-3.511V9.75"/>
	<path fill="#D52028" d="M37.477,33.382c0,0.456-0.409,0.825-0.912,0.825H21.273c-0.504,0-0.912-0.369-0.912-0.825l0,0
		c0-0.456,0.408-0.825,0.912-0.825h15.292C37.068,32.557,37.477,32.926,37.477,33.382L37.477,33.382z"/>
	<ellipse fill="none" stroke="#D52028" stroke-width="2" stroke-miterlimit="10" cx="35.753" cy="28.919" rx="2.078" ry="2.06"/>
	<path fill="none" stroke="#D52028" stroke-width="2" stroke-miterlimit="10" d="M8.791,43.195c0,1.055-0.854,1.908-1.907,1.908l0,0
		c-1.053,0-1.907-0.854-1.907-1.908V31.557c0-1.053,0.854-0.938,1.907-0.938l0,0c1.053,0,1.907-0.113,1.907,0.938V43.195z"/>
	<path fill="none" stroke="#D52028" stroke-width="2" stroke-miterlimit="10" d="M14.678,43.195c0,1.055-0.854,1.908-1.907,1.908
		l0,0c-1.053,0-1.907-0.854-1.907-1.908V31.557c0-1.053,0.854-0.938,1.907-0.938l0,0c1.053,0,1.907-0.113,1.907,0.938V43.195z"/>
	<path fill="#D52028" d="M24.121,44.254c0,0.814-0.291,1.477-0.65,1.477l0,0c-0.359,0-0.651-0.66-0.651-1.477v-9.01
		c0-0.814,0.292-0.729,0.651-0.729l0,0c0.359,0,0.65-0.088,0.65,0.729V44.254z"/>
	<path fill="#D52028" d="M35.354,44.254c0,0.814-0.291,1.477-0.649,1.477l0,0c-0.359,0-0.651-0.66-0.651-1.477v-9.01
		c0-0.814,0.292-0.729,0.651-0.729l0,0c0.358,0,0.649-0.088,0.649,0.729V44.254z"/>
	<path fill="#D52028" d="M26.082,40.325c0,0.485-0.291,0.881-0.65,0.881l0,0c-0.359,0-0.651-0.396-0.651-0.881v-5.376
		c0-0.486,0.292-0.436,0.651-0.436l0,0c0.359,0,0.65-0.052,0.65,0.436V40.325z"/>
	<path fill="#D52028" d="M33.489,40.325c0,0.485-0.29,0.881-0.649,0.881l0,0c-0.359,0-0.651-0.396-0.651-0.881v-5.376
		c0-0.486,0.292-0.436,0.651-0.436l0,0c0.359,0,0.649-0.052,0.649,0.436V40.325z"/>
	<path fill="none" stroke="#D52028" stroke-width="2" stroke-miterlimit="10" d="M28.871,27.064v-1.412c0,0-0.179-1.465,0.912-1.403
		c0,0,1.361-0.151,1.348,1.36c0,0,0.377,4.309-0.484,5.005c0,0-1.452,1.353-7.869,0.466c0,0-1.856-0.324-0.867-2.543l1.432-2.24
		c0,0-0.012-0.378-0.604-0.826l-1.474-1.15c0,0-0.551-0.385-0.188-1.23c0,0,0.43-0.989,1.055-0.687l3.799,2.503
		c0,0,0.883,0.604,0.54,1.371l-0.54,0.505c0,0-0.327,0.403,0.339,0.565h1.412C27.678,27.348,28.871,27.43,28.871,27.064z"/>
</g>
</svg>
