<?xml version="1.0" encoding="utf-8"?>
<!-- Generator: Adobe Illustrator 16.0.3, SVG Export Plug-In . SVG Version: 6.00 Build 0)  -->
<!DOCTYPE svg PUBLIC "-//W3C//DTD SVG 1.1//EN" "http://www.w3.org/Graphics/SVG/1.1/DTD/svg11.dtd">
<svg version="1.1" id="Layer_1" xmlns="http://www.w3.org/2000/svg" xmlns:xlink="http://www.w3.org/1999/xlink" x="0px" y="0px"
	 width="41.667px" height="46.5px" viewBox="0 0 41.667 46.5" enable-background="new 0 0 41.667 46.5" xml:space="preserve">
<g>
	<path fill="#D52027" d="M29.136,11.366c0,0.629-0.355,1.139-0.792,1.139H10.257c-0.438,0-0.792-0.509-0.792-1.139l0,0
		c0-0.629,0.355-1.139,0.792-1.139h18.087C28.781,10.227,29.136,10.737,29.136,11.366L29.136,11.366z"/>
	<path fill="#D52027" d="M29.136,19.245c0,0.629-0.355,1.138-0.792,1.138H10.257c-0.438,0-0.792-0.509-0.792-1.138l0,0
		c0-0.629,0.355-1.139,0.792-1.139h18.087C28.781,18.106,29.136,18.616,29.136,19.245L29.136,19.245z"/>
	<path fill="#D52027" d="M29.136,27.123c0,0.629-0.355,1.138-0.792,1.138H10.257c-0.438,0-0.792-0.509-0.792-1.138l0,0
		c0-0.629,0.355-1.139,0.792-1.139h18.087C28.781,25.984,29.136,26.494,29.136,27.123L29.136,27.123z"/>
	<g>
		<path fill="#D52027" d="M40.958,33.161c0.587,0.586,0.866,1.26,0.621,1.506L31.471,44.775c-0.244,0.245-0.919-0.033-1.507-0.62
			l0,0c-0.586-0.586-0.865-1.262-0.62-1.505l10.108-10.109C39.696,32.295,40.37,32.573,40.958,33.161L40.958,33.161z"/>
		<path fill="#D52027" d="M29.964,33.161c-0.586,0.586-0.865,1.26-0.62,1.506l10.108,10.109c0.245,0.245,0.918-0.033,1.506-0.62l0,0
			c0.587-0.586,0.865-1.262,0.621-1.505L31.471,32.541C31.227,32.295,30.552,32.573,29.964,33.161L29.964,33.161z"/>
	</g>
	<path fill="none" stroke="#D52027" stroke-width="4" stroke-miterlimit="10" d="M36.08,16.421"/>
	<path fill="none" stroke="#D52027" stroke-width="3" stroke-miterlimit="10" d="M36.08,31V4.92c0-0.968-0.892-1.753-1.992-1.753
		H5.562c-1.1,0-1.992,0.785-1.992,1.753v32.343c0,0.968,0.892,1.753,1.992,1.753h23.389"/>
	<path fill="none" stroke="#D52027" stroke-width="4" stroke-miterlimit="10" d="M29.417,39.016"/>
</g>
</svg>
