<?xml version="1.0" encoding="utf-8"?>
<!-- Generator: Adobe Illustrator 16.0.3, SVG Export Plug-In . SVG Version: 6.00 Build 0)  -->
<!DOCTYPE svg PUBLIC "-//W3C//DTD SVG 1.1//EN" "http://www.w3.org/Graphics/SVG/1.1/DTD/svg11.dtd">
<svg version="1.1" id="Layer_1" xmlns="http://www.w3.org/2000/svg" xmlns:xlink="http://www.w3.org/1999/xlink" x="0px" y="0px"
	 width="41.291px" height="42.75px" viewBox="0 0 41.291 42.75" enable-background="new 0 0 41.291 42.75" xml:space="preserve">
<g>
	<circle fill="none" stroke="#D52028" stroke-width="2" stroke-miterlimit="10" cx="32.168" cy="29.569" r="4.138"/>
	<g>
		<path fill="none" stroke="#D52028" stroke-width="2" stroke-miterlimit="10" d="M32.168,33.708c-3.846,0-6.965,3.118-6.965,6.965
			h13.931C39.134,36.826,36.014,33.708,32.168,33.708z"/>
	</g>
</g>
<path fill="#D52027" d="M6.556,37.747c0,0.797-0.508,1.443-1.137,1.443l0,0c-0.627,0-1.138-0.646-1.138-1.443V3.32
	c0-0.799,0.511-1.445,1.138-1.445l0,0c0.629,0,1.137,0.646,1.137,1.445V37.747z"/>
<line fill="none" stroke="#D52027" stroke-width="2" stroke-miterlimit="10" x1="1.583" y1="7.725" x2="4.98" y2="7.725"/>
<line fill="none" stroke="#D52027" stroke-width="2" stroke-miterlimit="10" x1="1.583" y1="19.717" x2="4.98" y2="19.717"/>
<path fill="none" stroke="#D52027" stroke-width="2" stroke-miterlimit="10" d="M26.822,21.486c0,0.885,0.165,1.486-0.721,1.486
	H6.556c-0.886,0-1.012-0.718-1.012-1.604l0,0c0-0.886,0.126-1.604,1.012-1.604h19.546c0.886,0,0.719,0.718,0.719,1.604
	L26.822,21.486z"/>
<path fill="none" stroke="#D52027" stroke-width="2" stroke-miterlimit="10" d="M24.781,17.597c0,0.886,0.148,1.486-0.641,1.486
	H6.75c-0.788,0-0.9-0.718-0.9-1.604l0,0c0-0.886,0.112-1.604,0.9-1.604h17.391c0.789,0,0.64,0.718,0.64,1.604L24.781,17.597z"/>
<line fill="none" stroke="#D52027" stroke-width="2" stroke-miterlimit="10" x1="1.89" y1="31.332" x2="5.287" y2="31.332"/>
<path fill="none" stroke="#D52027" stroke-width="2" stroke-miterlimit="10" d="M19.678,33.054c0,0.886,0.108,1.486-0.468,1.486
	H6.509c-0.576,0-0.658-0.718-0.658-1.604l0,0c0-0.886,0.082-1.604,0.658-1.604H19.21c0.576,0,0.467,0.718,0.467,1.604L19.678,33.054
	z"/>
<path fill="none" stroke="#D52027" stroke-width="2" stroke-miterlimit="10" d="M24.911,29.751c0,0.886,0.148,1.486-0.64,1.486
	H6.881c-0.789,0-0.9-0.718-0.9-1.604l0,0c0-0.887,0.111-1.604,0.9-1.604h17.391c0.788,0,0.639,0.718,0.639,1.604L24.911,29.751z"/>
<path fill="none" stroke="#D52027" stroke-width="2" stroke-miterlimit="10" d="M20.102,9.447c0,0.886,0.11,1.486-0.478,1.486H6.651
	c-0.587,0-0.671-0.718-0.671-1.604l0,0c0-0.886,0.084-1.604,0.671-1.604h12.973c0.588,0,0.477,0.718,0.477,1.604L20.102,9.447z"/>
<path fill="none" stroke="#D52027" stroke-width="2" stroke-miterlimit="10" d="M27.129,6.145c0,0.886,0.165,1.486-0.721,1.486
	H6.862c-0.886,0-1.012-0.718-1.012-1.604l0,0c0-0.886,0.126-1.604,1.012-1.604h19.546c0.886,0,0.719,0.718,0.719,1.604L27.129,6.145
	z"/>
</svg>
