<?xml version="1.0" encoding="utf-8"?>
<!-- Generator: Adobe Illustrator 16.0.3, SVG Export Plug-In . SVG Version: 6.00 Build 0)  -->
<!DOCTYPE svg PUBLIC "-//W3C//DTD SVG 1.1//EN" "http://www.w3.org/Graphics/SVG/1.1/DTD/svg11.dtd">
<svg version="1.1" id="Layer_1" xmlns="http://www.w3.org/2000/svg" xmlns:xlink="http://www.w3.org/1999/xlink" x="0px" y="0px"
	 width="28.167px" height="28.792px" viewBox="0 0 28.167 28.792" enable-background="new 0 0 28.167 28.792" xml:space="preserve">
<g id="Layer_2" display="none">
	<rect x="0.085" display="inline" width="28.081" height="28.792"/>
</g>
<g id="Layer_3">
	<circle fill="none" stroke="#FFFFFF" stroke-width="2" stroke-miterlimit="10" cx="13.737" cy="11.57" r="4.156"/>
	<circle fill="#FFFFFF" cx="13.737" cy="10.917" r="1.073"/>
	<g>
		<g>
			<path fill="#FFFFFF" d="M13.737,11.814c-0.805,0-1.457,0.652-1.457,1.457h2.913C15.193,12.466,14.541,11.814,13.737,11.814z"/>
		</g>
	</g>
	<circle fill="none" stroke="#FFFFFF" stroke-width="2" stroke-miterlimit="10" cx="22.048" cy="23.264" r="4.156"/>
	<circle fill="#FFFFFF" cx="22.048" cy="22.612" r="1.073"/>
	<g>
		<g>
			<path fill="#FFFFFF" d="M22.048,23.507c-0.805,0-1.457,0.652-1.457,1.457h2.912C23.505,24.16,22.853,23.507,22.048,23.507z"/>
		</g>
	</g>
	<circle fill="none" stroke="#FFFFFF" stroke-width="2" stroke-miterlimit="10" cx="5.563" cy="23.323" r="4.156"/>
	<circle fill="#FFFFFF" cx="5.563" cy="22.67" r="1.073"/>
	<g>
		<g>
			<path fill="#FFFFFF" d="M5.563,23.567c-0.804,0-1.456,0.651-1.456,1.456H7.02C7.02,24.218,6.368,23.567,5.563,23.567z"/>
		</g>
	</g>
	<line fill="none" stroke="#FFFFFF" stroke-width="2" stroke-miterlimit="10" x1="10.644" y1="14.345" x2="6.637" y2="19.645"/>
	<line fill="none" stroke="#FFFFFF" stroke-width="2" stroke-miterlimit="10" x1="16.69" y1="14.238" x2="21.371" y2="19.039"/>
	<line fill="none" stroke="#FFFFFF" stroke-width="2" stroke-miterlimit="10" x1="17.893" y1="11.57" x2="21.371" y2="11.57"/>
	<line fill="none" stroke="#FFFFFF" stroke-width="2" stroke-miterlimit="10" x1="6.195" y1="11.57" x2="9.672" y2="11.57"/>
	<circle fill="none" stroke="#FFFFFF" stroke-width="2" stroke-miterlimit="10" cx="5.039" cy="11.57" r="1.598"/>
	<circle fill="none" stroke="#FFFFFF" stroke-width="2" stroke-miterlimit="10" cx="22.574" cy="11.419" r="1.598"/>
	<line fill="none" stroke="#FFFFFF" stroke-width="2" stroke-miterlimit="10" x1="13.764" y1="7.498" x2="13.764" y2="4.021"/>
	<circle fill="none" stroke="#FFFFFF" stroke-width="2" stroke-miterlimit="10" cx="13.613" cy="2.818" r="1.598"/>
</g>
</svg>
