<?xml version="1.0" encoding="utf-8"?>
<!-- Generator: Adobe Illustrator 16.0.3, SVG Export Plug-In . SVG Version: 6.00 Build 0)  -->
<!DOCTYPE svg PUBLIC "-//W3C//DTD SVG 1.1//EN" "http://www.w3.org/Graphics/SVG/1.1/DTD/svg11.dtd">
<svg version="1.1" id="Layer_1" xmlns="http://www.w3.org/2000/svg" xmlns:xlink="http://www.w3.org/1999/xlink" x="0px" y="0px"
	 width="24.012px" height="29.611px" viewBox="-0.262 0 24.012 29.611" enable-background="new -0.262 0 24.012 29.611"
	 xml:space="preserve">
<g id="Layer_17" display="none">
	<path display="inline" d="M27.763,28.408c0,0.664-0.423,1.203-0.944,1.203H0.685c-0.523,0-0.947-0.539-0.947-1.203V1.202
		C-0.262,0.538,0.161,0,0.685,0h26.134c0.521,0,0.944,0.538,0.944,1.202V28.408L27.763,28.408z"/>
</g>
<g id="Layer_16" display="none">
	<g display="inline">
		<path fill="#FFFFFF" d="M21.454,11.432h-2.767v1.68h2.338v0.94h-2.338v2.532h-1.221v-6.09h3.986L21.454,11.432L21.454,11.432z"/>
		<path fill="#FFFFFF" d="M10.29,10.964c-0.401-0.357-0.951-0.536-1.653-0.536h-2.33v6.091h1.222v-2.21h1.108
			c0.701,0,1.25-0.178,1.652-0.531c0.401-0.354,0.603-0.822,0.603-1.404C10.893,11.79,10.691,11.322,10.29,10.964z M9.412,13.092
			c-0.177,0.187-0.434,0.278-0.775,0.278H7.528v-2h1.108c0.343,0,0.602,0.096,0.775,0.286c0.176,0.193,0.263,0.434,0.263,0.725
			C9.676,12.669,9.587,12.905,9.412,13.092z"/>
		<path fill="#FFFFFF" d="M13.922,10.492h-2.124v6.09h2.124c0.746,0,1.357-0.237,1.842-0.71c0.483-0.472,0.725-1.083,0.725-1.83
			v-1.008c0-0.743-0.24-1.354-0.725-1.83C15.279,10.73,14.668,10.492,13.922,10.492z M15.262,14.044
			c0,0.469-0.123,0.853-0.369,1.153c-0.244,0.298-0.568,0.448-0.971,0.448h-0.904v-4.213h0.904c0.401,0,0.727,0.15,0.971,0.449
			c0.246,0.3,0.369,0.681,0.369,1.147V14.044z"/>
		<polygon fill="#FFFFFF" points="17.468,16.583 18.688,16.583 18.688,14.052 21.023,14.052 21.023,13.112 18.688,13.112 
			18.688,11.432 21.454,11.432 21.454,10.492 17.468,10.492 		"/>
	</g>
	<g display="inline">
		<polygon fill="#FFFFFF" points="16.52,25.49 16.516,20.354 11.602,20.359 11.602,25.49 8.602,25.49 14.058,31.921 19.463,25.49 		
			"/>
	</g>
	<g display="inline">
		<path fill="none" stroke="#FFFFFF" stroke-width="2" stroke-miterlimit="10" d="M20.604,27.934h1.315
			c0.839,0,1.521-0.681,1.521-1.521V6.424l-4.75,0.023c-0.84,0-1.521-0.68-1.521-1.521V1.528H5.582c-0.84,0-1.521,0.68-1.521,1.52
			v23.366c0,0.84,0.681,1.521,1.521,1.521h1.396"/>
		<path fill="none" stroke="#FFFFFF" stroke-width="2" stroke-miterlimit="10" d="M18.415,1.528H17.17v3.753
			c0,0.839,0.682,1.52,1.521,1.52l4.748,0.029V4.872L18.415,1.528z"/>
	</g>
</g>
<g id="Layer_16_1_">
	<g>
		<path fill="#FFFFFF" d="M18.99,9.725h-2.588v1.57h2.187v0.879h-2.187v2.368h-1.141V8.846h3.729V9.725z"/>
		<path fill="#FFFFFF" d="M8.549,9.286c-0.375-0.334-0.889-0.5-1.544-0.5H4.824v5.696h1.142v-2.066h1.037
			c0.655,0,1.171-0.167,1.546-0.497c0.375-0.332,0.563-0.77,0.563-1.314C9.113,10.059,8.926,9.621,8.549,9.286z M7.728,11.275
			c-0.165,0.174-0.406,0.261-0.724,0.261h-1.04V9.665h1.037c0.321,0,0.564,0.09,0.726,0.268c0.165,0.181,0.246,0.405,0.246,0.678
			C7.975,10.881,7.892,11.101,7.728,11.275z"/>
		<path fill="#FFFFFF" d="M11.946,8.845H9.959v5.696h1.987c0.697,0,1.27-0.221,1.723-0.664c0.451-0.442,0.679-1.013,0.679-1.71
			v-0.941c0-0.698-0.228-1.268-0.679-1.713C13.217,9.067,12.645,8.845,11.946,8.845z M13.199,12.167
			c0,0.438-0.117,0.797-0.346,1.079c-0.229,0.279-0.533,0.419-0.907,0.419h-0.845v-3.94h0.845c0.374,0,0.679,0.14,0.907,0.418
			c0.229,0.28,0.346,0.636,0.346,1.073V12.167z"/>
		<polygon fill="#FFFFFF" points="15.262,14.541 16.402,14.541 16.402,12.174 18.589,12.174 18.589,11.295 16.402,11.295 
			16.402,9.725 18.99,9.725 18.99,8.845 15.262,8.845 		"/>
	</g>
	<g>
		<polygon fill="#FFFFFF" points="14.876,22.824 14.876,17.642 9.002,17.695 9.002,22.824 5.422,22.824 11.942,29.255 
			18.393,22.824 		"/>
	</g>
	<g>
		<path fill="none" stroke="#FFFFFF" stroke-width="2" stroke-miterlimit="10" d="M19.314,25.662h1.563
			c0.839,0,1.521-0.656,1.521-1.463V6.966V3.708c0-0.921-0.919-1.453-1.68-1.443l-6.234-0.01H2.896c-0.84,0-1.521,0.654-1.521,1.461
			v20.48c0,0.809,0.682,1.465,1.521,1.465h1.585"/>
	</g>
</g>
<g display="none">
	<polygon display="inline" fill="none" points="15.701,19.267 15.701,14.085 11.842,14.138 11.842,19.267 9.486,19.267 
		11.749,22.662 15.775,22.662 18.014,19.267 	"/>
	<path display="inline" fill="none" d="M8.573,8.666h0.903c0.57,0,1.02-0.145,1.348-0.433c0.325-0.289,0.49-0.67,0.49-1.145
		c0-0.477-0.163-0.858-0.49-1.149c-0.328-0.291-0.775-0.437-1.347-0.437H7.578v4.963h0.995V8.666z M8.573,6.27h0.903
		c0.279,0,0.49,0.078,0.633,0.233c0.143,0.157,0.214,0.353,0.214,0.59c0.001,0.235-0.072,0.427-0.214,0.579
		C9.965,7.825,9.756,7.9,9.478,7.9H8.573V6.27z"/>
	<path display="inline" fill="none" d="M15.283,9.94c0.394-0.386,0.591-0.883,0.591-1.491V7.628c0-0.607-0.197-1.104-0.591-1.492
		c-0.395-0.387-0.893-0.581-1.5-0.581h-1.73v4.962h1.73C14.393,10.518,14.891,10.325,15.283,9.94z M13.047,6.322h0.736
		c0.327,0,0.591,0.122,0.791,0.365c0.199,0.244,0.301,0.554,0.301,0.935V8.45c0,0.382-0.102,0.695-0.301,0.94
		c-0.2,0.243-0.464,0.365-0.791,0.365h-0.736V6.322z"/>
	<polygon display="inline" fill="none" points="17.666,8.456 19.57,8.456 19.57,7.689 17.666,7.689 17.666,6.322 19.92,6.322 
		19.92,5.556 16.672,5.556 16.672,10.518 17.666,10.518 	"/>
	<path display="inline" fill="#FFFFFF" d="M10.109,7.673c0.142-0.152,0.215-0.344,0.214-0.579c0-0.237-0.071-0.433-0.214-0.59
		C9.967,6.348,9.756,6.27,9.477,6.27H8.573V7.9h0.904C9.756,7.9,9.965,7.825,10.109,7.673z"/>
	<path display="inline" fill="#FFFFFF" d="M14.574,9.389c0.199-0.245,0.301-0.558,0.301-0.94V7.622c0-0.38-0.102-0.69-0.301-0.935
		c-0.2-0.243-0.464-0.365-0.791-0.365h-0.736v3.432h0.736C14.11,9.754,14.374,9.632,14.574,9.389z"/>
	<path display="inline" fill="#FFFFFF" d="M21.936,1.673h-4.533H5.029c-0.897,0-1.625,0.54-1.625,1.208v18.572
		c0,0.668,0.728,1.209,1.625,1.209h4.182h2.538l-2.263-3.395h2.355v-5.129l3.859-0.053v5.182h2.313l-2.238,3.395h3.357h3.34
		c0.896,0,1.62-0.541,1.62-1.209V5.564V2.731C24.096,1.97,23.229,1.632,21.936,1.673z M16.672,10.518V5.556V5.555h3.248v0.001v0.766
		h-2.254V7.69h1.904v0.766h-1.904v2.062v0.001L16.672,10.518L16.672,10.518z M12.053,5.555h1.73c0.607,0,1.105,0.194,1.5,0.581
		c0.394,0.389,0.591,0.885,0.591,1.492v0.821c0,0.608-0.197,1.105-0.591,1.491c-0.395,0.385-0.893,0.578-1.5,0.578h-1.73V5.555z
		 M7.578,5.503h1.899c0.571,0,1.019,0.146,1.347,0.437c0.327,0.291,0.49,0.672,0.49,1.149c0,0.474-0.165,0.855-0.49,1.145
		c-0.328,0.288-0.777,0.433-1.348,0.433H8.573v1.8H7.578V5.503z M22.029,12.692H5.279v-0.77h16.75V12.692z"/>
	<rect x="16.672" y="10.518" display="inline" fill="#FFFFFF" width="0.994" height="0.001"/>
	<rect x="16.672" y="5.555" display="inline" fill="#FFFFFF" width="3.248" height="0.001"/>
	<polygon display="inline" fill="#FFFFFF" points="13.772,25.699 15.775,22.662 11.749,22.662 	"/>
</g>
</svg>
